<svg xmlns="http://www.w3.org/2000/svg" viewBox="0 0 1440 320"><path fill="#70b3ff" fill-opacity="1" d="M0,224L15,229.3C30,235,60,245,90,245.3C120,245,150,235,180,229.3C210,224,240,224,270,213.3C300,203,330,181,360,160C390,139,420,117,450,133.3C480,149,510,203,540,197.3C570,192,600,128,630,101.3C660,75,690,85,720,101.3C750,117,780,139,810,128C840,117,870,75,900,90.7C930,107,960,181,990,192C1020,203,1050,149,1080,138.7C1110,128,1140,160,1170,181.3C1200,203,1230,213,1260,202.7C1290,192,1320,160,1350,165.3C1380,171,1410,213,1425,234.7L1440,256L1440,320L1425,320C1410,320,1380,320,1350,320C1320,320,1290,320,1260,320C1230,320,1200,320,1170,320C1140,320,1110,320,1080,320C1050,320,1020,320,990,320C960,320,930,320,900,320C870,320,840,320,810,320C780,320,750,320,720,320C690,320,660,320,630,320C600,320,570,320,540,320C510,320,480,320,450,320C420,320,390,320,360,320C330,320,300,320,270,320C240,320,210,320,180,320C150,320,120,320,90,320C60,320,30,320,15,320L0,320Z"></path></svg>